<?xml version="1.0" standalone="no"?>
<!DOCTYPE svg PUBLIC "-//W3C//DTD SVG 20010904//EN"
 "http://www.w3.org/TR/2001/REC-SVG-20010904/DTD/svg10.dtd">
<svg version="1.0" xmlns="http://www.w3.org/2000/svg"
 width="640.000000pt" height="1280.000000pt" viewBox="0 0 640.000000 1280.000000"
 preserveAspectRatio="xMidYMid meet">
<metadata>
Created by potrace 1.15, written by Peter Selinger 2001-2017
</metadata>
<g transform="translate(0.000000,1280.000000) scale(0.100000,-0.100000)"
fill="#000000" stroke="none">
<path d="M3153 12780 c-65 -39 -73 -112 -19 -166 46 -46 74 -44 127 6 38 36
41 43 36 77 -4 26 -18 48 -42 71 -40 37 -58 39 -102 12z"/>
<path d="M3316 12460 c-89 -27 -137 -152 -92 -238 18 -35 81 -71 124 -72 39 0
111 40 132 75 70 113 -41 272 -164 235z"/>
<path d="M2880 12040 c-71 -15 -142 -56 -203 -116 -176 -175 -166 -406 26
-580 89 -82 133 -99 252 -99 92 0 106 3 167 32 88 41 160 113 201 201 28 61
31 76 31 162 0 106 -17 162 -73 244 -81 118 -256 186 -401 156z m8 -156 c29
-20 52 -66 52 -104 0 -37 -43 -85 -86 -96 -39 -10 -94 22 -116 66 -34 70 15
150 91 150 20 0 47 -7 59 -16z"/>
<path d="M3177 11045 c-51 -18 -81 -47 -112 -109 -36 -71 -34 -128 8 -196 57
-95 172 -143 258 -107 51 21 109 76 130 122 37 80 17 198 -42 252 -56 51 -161
68 -242 38z"/>
<path d="M3020 10284 c-337 -31 -451 -58 -515 -124 l-39 -40 -2 -328 -1 -327
56 -130 56 -130 -1 -165 c-1 -177 -18 -335 -64 -605 -64 -370 -110 -513 -434
-1343 -146 -374 -163 -429 -171 -572 -10 -168 -23 -273 -60 -460 -67 -347 -85
-507 -91 -850 -5 -213 -2 -309 14 -490 14 -171 17 -246 10 -315 -16 -163 -1
-305 102 -925 115 -694 129 -814 137 -1141 8 -369 -6 -473 -112 -829 -116
-390 -163 -653 -152 -859 11 -227 76 -327 287 -439 160 -86 378 -145 705 -194
132 -19 692 -16 902 5 446 46 800 181 927 356 58 79 69 127 69 296 1 235 -41
469 -148 834 -170 577 -168 778 25 1956 97 593 101 634 105 970 2 160 8 337
14 395 13 135 14 481 1 635 -23 267 -53 468 -111 726 -36 163 -39 184 -33 280
9 152 -2 191 -211 719 -154 390 -299 807 -344 985 -65 263 -113 628 -115 870
l-1 160 47 100 c26 55 52 122 59 148 14 56 7 210 -12 278 -11 42 -10 55 10
124 30 100 26 201 -10 272 -39 77 -130 112 -369 143 -89 11 -453 21 -530 14z
m100 -563 c14 -4 31 -18 39 -33 13 -22 13 -33 -2 -94 -24 -94 -49 -119 -122
-118 -94 2 -115 30 -115 162 0 85 7 92 98 91 42 -1 88 -4 102 -8z m-13 -613
c-4 -29 -22 -298 -42 -598 -76 -1179 -132 -1887 -156 -2008 -7 -33 -17 -56
-29 -62 -23 -12 -250 -13 -269 -1 -19 12 -14 46 68 486 181 962 253 1494 276
2060 4 83 8 156 10 163 3 8 27 12 76 12 l72 0 -6 -52z m-278 -2867 l46 -7 -2
-84 c-2 -47 -6 -98 -11 -115 l-9 -30 -142 2 c-194 2 -195 4 -169 177 l12 78
115 -7 c63 -4 135 -10 160 -14z m-174 -1991 c163 -19 152 -13 159 -83 18 -177
79 -1003 128 -1712 7 -104 13 -347 13 -540 0 -325 -2 -358 -23 -465 -53 -266
-117 -453 -166 -485 -40 -27 -129 -17 -164 19 -25 25 -27 32 -26 109 1 68 11
115 57 272 30 105 62 219 70 255 53 218 48 459 -34 1405 -56 651 -103 1146
-115 1208 -3 15 -2 27 3 27 4 0 49 -5 98 -10z m15 -3845 c75 -18 120 -34 120
-45 0 -19 -44 -59 -82 -75 -73 -29 -145 1 -168 71 -23 67 5 78 130 49z"/>
</g>
</svg>
