<?xml version="1.0" encoding="utf-8"?>
<!-- Uploaded to: SVG Repo, www.svgrepo.com, Generator: SVG Repo Mixer Tools -->
<svg fill="#000000" width="800px" height="800px" viewBox="0 0 32 32" version="1.1" xmlns="http://www.w3.org/2000/svg">
<title>brandy-bottle</title>
<path d="M16.18 1.51c2.525-0.1 4.998 0.628 7.384 1.979l-0.544 2.029c-2.8 0.336-5.13-0.189-7.384-1.979l0.544-2.029zM20.688 14.18c0.562-0.369 0.983-0.866 1.148-1.481 0.307-1.143-0.308-2.353-1.454-3.251l1.028-3.836c-1.644-0.013-3.134-0.394-4.568-1.241l-1.023 3.818c-1.463 0.196-2.617 0.959-2.927 2.113-0.167 0.622-0.066 1.283 0.245 1.89-3.42 0.828-6.433 3.721-7.514 7.752-0.573 2.136-0.52 4.263 0.030 6.16 4.329 3.209 9.1 4.872 14.584 3.908 1.419-1.366 2.536-3.192 3.107-5.32 1.087-4.055-0.076-8.092-2.656-10.512zM20.059 22.673c-1.080-0.192-1.949 0.253-2.395 1.342l-6.269-1.68c0.195-1.035-0.44-2.047-1.452-2.372l0.786-2.93c1.040 0.223 2.107-0.379 2.457-1.377l6.269 1.68c-0.193 1.022 0.409 2.062 1.39 2.407l-0.786 2.93z"></path>
</svg>