<?xml version="1.0" encoding="iso-8859-1"?>
<!-- Uploaded to: SVG Repo, www.svgrepo.com, Generator: SVG Repo Mixer Tools -->
<svg fill="#000000" height="800px" width="800px" version="1.1" id="Layer_1" xmlns="http://www.w3.org/2000/svg" xmlns:xlink="http://www.w3.org/1999/xlink" 
	 viewBox="0 0 503.7 503.7" xml:space="preserve">
<g>
	<g>
		<g>
			<path d="M384.85,139.3c-11.5-6.7-23.5-14.4-33-24.6l-7.4-7.8c-8.6-9.2-20.8-14.5-33.4-14.5h-0.6V66.9c9.4-1.2,16.8-9.2,16.8-19
				V19.3c0-10.6-8.6-19.3-19.3-19.3h-22.7v25.2c0,4.6-3.8,8.4-8.4,8.4c-4.6,0-8.4-3.8-8.4-8.4V0h-25.2v25.2c0,4.6-3.8,8.4-8.4,8.4
				s-8.4-3.8-8.4-8.4V0h-22.7c-10.6,0-19.3,8.6-19.3,19.3v28.6c0,9.8,7.3,17.8,16.8,19v25.4h-2.5c-11.1,0-21.9,4.1-30.2,11.4
				l-9.5,8.4c-12,10.5-25.7,18.5-40.4,27.2c-11.1,6.5-17.9,18.5-17.9,31.3v294.8c0,21.1,17.2,38.3,38.3,38.3h225.6
				c21.1,0,38.3-17.2,38.3-38.3V170.6C402.85,157.7,395.95,145.8,384.85,139.3z M293.75,67.2v25.2h-75.5V67.2H293.75z M352.45,427.5
				c0,9.6-7.8,17.3-17.3,17.3h-166.8c-9.6,0-17.3-7.8-17.3-17.3V210.4c0-9.6,7.8-17.3,17.3-17.3h1.7c16.6,0,31.5-7.4,39.9-19.8
				c9.4-13.9,25-22.2,41.8-22.2s32.4,8.3,41.8,22.2c8.4,12.4,23.3,19.8,39.9,19.8h1.7c9.6,0,17.3,7.8,17.3,17.3V427.5z"/>
			<path d="M279.55,182.7c-6.3-9.3-16.7-14.8-27.8-14.8s-21.6,5.5-27.8,14.8c-11.5,17-31.6,27.2-53.8,27.2h-1.7l-0.6,217.7
				l167.3,0.6l0.6-217.7l-2.3-0.6C311.25,209.9,291.05,199.7,279.55,182.7z M201.35,247.1l50.4-30.2l50.4,30.2v51.5l-50.4,30.2
				l-50.4-30.2V247.1z M293.75,361c0,4.6-3.8,8.4-8.4,8.4h-67.1c-4.6,0-8.4-3.8-8.4-8.4c0-4.6,3.8-8.4,8.4-8.4h67.1
				C289.95,352.6,293.75,356.3,293.75,361z M302.15,402.9h-100.8c-4.6,0-8.4-3.8-8.4-8.4c0-4.6,3.8-8.4,8.4-8.4h100.7
				c4.6,0,8.4,3.8,8.4,8.4C310.55,399.2,306.75,402.9,302.15,402.9z"/>
			<polygon points="285.35,289.1 285.35,256.6 251.75,236.4 218.15,256.6 218.15,289.1 251.75,309.2 			"/>
		</g>
	</g>
</g>
</svg>